# xmcd
#
# Track frame offsets:
#	183
#	10940
#	23720
#	33150
#	46095
#	64450
#	73803
#	87028
#	114378
#	128873
#	146338
#	166938
#	179195
#	193853
#
# Disc length: 2842
#
# Revision: 1
# Processed by: cddbd v1.5.1PL0 Copyright (c) Steve Scherf et al.
# Submitted via: VisiTrax 2.9.5.180 - For more info visit www.synapsa.com
# Normalized: r0:DSETVAR2
#
DISCID=c00b180e
DTITLE=Various Artist - Osmonds and Friends
DYEAR=1900
DGENRE=
TTITLE0=Osmonds - Gonna be a heartache tonight
TTITLE1=Osmonds - Where does an angel go
TTITLE2=Ed Bruce - Mama don't let your babies grow up to be cowboys
TTITLE3=Patty Loveless - It's what you don't do
TTITLE4=Osmonds - If every man had a woman like you
TTITLE5=Dottie West - Rocky top
TTITLE6=Johnny Rodriquez - Desperado
TTITLE7=Osmonds - An american trilogy
TTITLE8=Osmonds - Takin' country to the city
TTITLE9=Ed Bruce - Memphis roots
TTITLE10=Dottie West - Crazy
TTITLE11=Patty Loveless - Lonely days lonely nights
TTITLE12=Osmonds - Yes ma am
TTITLE13=Osmonds - He ain't heavy he's my brother
EXTD=
EXTT0=
EXTT1=
EXTT2=
EXTT3=
EXTT4=
EXTT5=
EXTT6=
EXTT7=
EXTT8=
EXTT9=
EXTT10=
EXTT11=
EXTT12=
EXTT13=
PLAYORDER=
